# xmcd CD database file
#
# Track frame offsets:
#	150
#	37301
#	63259
#	94030
#	126202
#	157292
#	191131
#	211256
#	244734
#
# Disc length: 3470 seconds
#
# Revision: 0
# Processed by: cddbd v1.5.2PL0 Copyright (c) Steve Scherf et al.
# Submitted via: CDex 1.51
#
DISCID=850d8c09
DTITLE=Rapazes do Trio - Rapazes do Trio
DYEAR=1900
DGENRE=Jazz
TTITLE0=Vira Latin
TTITLE1=Dança das Águas
TTITLE2=Seu Chico
TTITLE3=Meias Palavras
TTITLE4=Tem Tatú Aí
TTITLE5=A Fuga
TTITLE6=Fruta Verde
TTITLE7=Encontro Marcado
TTITLE8=O Dono da Bola
EXTD=
EXTT0=
EXTT1=
EXTT2=
EXTT3=
EXTT4=
EXTT5=
EXTT6=
EXTT7=
EXTT8=
PLAYORDER=
